<svg xmlns="http://www.w3.org/2000/svg">
  <defs>
    <symbol id="user" viewBox="0 0 24 24">
      <path d="M20 21v-2a4 4 0 0 0-4-4H8a4 4 0 0 0-4 4v2"></path>
      <circle cx="12" cy="7" r="4"></circle>
    </symbol>
    <symbol id="file-text" viewBox="0 0 24 24">
      <path d="M14 2H6a2 2 0 0 0-2 2v16a2 2 0 0 0 2 2h12a2 2 0 0 0 2-2V8z"></path>
      <polyline points="14 2 14 8 20 8"></polyline>
      <line x1="16" y1="13" x2="8" y2="13"></line>
      <line x1="16" y1="17" x2="8" y2="17"></line>
      <polyline points="10 9 9 9 8 9"></polyline>
    </symbol>
    <symbol id="arrow-left" viewBox="0 0 24 24">
      <line x1="19" y1="12" x2="5" y2="12"></line>
      <polyline points="12 19 5 12 12 5"></polyline>
    </symbol>
    <symbol id="heart" viewBox="0 0 24 24">
      <path d="M20.84 4.61a5.5 5.5 0 0 0-7.78 0L12 5.67l-1.06-1.06a5.5 5.5 0 0 0-7.78 7.78l1.06 1.06L12 21.23l7.78-7.78 1.06-1.06a5.5 5.5 0 0 0 0-7.78z"></path>
    </symbol>
    <symbol id="home" viewBox="0 0 24 24">
      <path d="M3 9l9-7 9 7v11a2 2 0 0 1-2 2H5a2 2 0 0 1-2-2z"></path>
      <polyline points="9 22 9 12 15 12 15 22"></polyline>
    </symbol>
    <symbol id="skip-back" viewBox="0 0 24 24">
      <polygon points="19 20 9 12 19 4 19 20"></polygon>
      <line x1="5" y1="19" x2="5" y2="5"></line>
    </symbol>
    <symbol id="skip-forward" viewBox="0 0 24 24">
      <polygon points="5 4 15 12 5 20 5 4"></polygon>
      <line x1="19" y1="5" x2="19" y2="19"></line>
    </symbol>
    <symbol id="search" viewBox="0 0 24 24">
      <circle cx="11" cy="11" r="8"></circle>
      <line x1="21" y1="21" x2="16.65" y2="16.65"></line>
    </symbol>
    <symbol id="mail" viewBox="0 0 24 24">
      <path d="M4 4h16c1.1 0 2 .9 2 2v12c0 1.1-.9 2-2 2H4c-1.1 0-2-.9-2-2V6c0-1.1.9-2 2-2z"></path>
      <polyline points="22,6 12,13 2,6"></polyline>
    </symbol>
    <symbol id="send" viewBox="0 0 24 24">
      <line x1="22" y1="2" x2="11" y2="13"></line>
      <polygon points="22 2 15 22 11 13 2 9 22 2"></polygon>
    </symbol>
    <symbol id="facebook" viewBox="0 0 24 24">
      <path d="M18 2h-3a5 5 0 0 0-5 5v3H7v4h3v8h4v-8h3l1-4h-4V7a1 1 0 0 1 1-1h3z"></path>
    </symbol>
    <symbol id="github" viewBox="0 0 24 24">
      <path d="M9 19c-5 1.5-5-2.5-7-3m14 6v-3.87a3.37 3.37 0 0 0-.94-2.61c3.14-.35 6.44-1.54 6.44-7A5.44 5.44 0 0 0 20 4.77 5.07 5.07 0 0 0 19.91 1S18.73.65 16 2.48a13.38 13.38 0 0 0-7 0C6.27.65 5.09 1 5.09 1A5.07 5.07 0 0 0 5 4.77a5.44 5.44 0 0 0-1.5 3.78c0 5.42 3.3 6.61 6.44 7A3.37 3.37 0 0 0 9 18.13V22"></path>
    </symbol>
    <symbol id="gitlab" viewBox="0 0 24 24">
      <path d="M22.65 14.39L12 22.13 1.35 14.39a.84.84 0 0 1-.3-.94l1.22-3.78 2.44-7.51A.42.42 0 0 1 4.82 2a.43.43 0 0 1 .58 0 .42.42 0 0 1 .11.18l2.44 7.49h8.1l2.44-7.51A.42.42 0 0 1 18.6 2a.43.43 0 0 1 .58 0 .42.42 0 0 1 .11.18l2.44 7.51L23 13.45a.84.84 0 0 1-.35.94z"></path>
    </symbol>
    <symbol id="twitter" viewBox="0 0 24 24">
      <path d="M23 3a10.9 10.9 0 0 1-3.14 1.53 4.48 4.48 0 0 0-7.86 3v1A10.66 10.66 0 0 1 3 4s-4 9 5 13a11.64 11.64 0 0 1-7 2c9 5 20 0 20-11.5a4.5 4.5 0 0 0-.08-.83A7.72 7.72 0 0 0 23 3z"></path>
    </symbol>
    <symbol id="instagram" viewBox="0 0 24 24">
      <rect x="2" y="2" width="20" height="20" rx="5" ry="5"></rect>
      <path d="M16 11.37A4 4 0 1 1 12.63 8 4 4 0 0 1 16 11.37z"></path>
      <line x1="17.5" y1="6.5" x2="17.5" y2="6.5"></line>
    </symbol>
    <symbol id="artstation" viewBox="0 0 24 24">
      <g transform="matrix(.91538 0 0 .91538 -20.178 1.574)" stroke-linecap="butt" stroke-linejoin="miter" stroke-width="2.1849">
        <path d="m33.37 1.1421 11.429 19.271 1.9153-3.2565s0.62796-1.0047-0.28258-2.5119c-0.91055-1.5071-0.91055-1.5385-0.91055-1.5385l-6.4366-10.927s-0.43957-1.0378-2.2607-1.0378h-3.4538z"/>
        <path d="m30.756 3.6925 5.8358 9.8704-11.672-0.07204z"/>
        <path d="m24.223 16.987 14.419-0.09243 2.6343 4.3442h-13.132s-1.1111 0.09099-1.683-0.72599c-0.57188-0.81698-0.57188-0.84966-0.57188-0.84966z"/>
      </g>
    </symbol>
    <symbol id="behance" viewBox="0 0 24 24">
      <g stroke-linejoin="round" stroke-width="2">
        <path d="m21.028 18.499c-0.68346 0.6725-1.6211 1.0874-2.6557 1.0874-2.0913 0-3.7867-1.6954-3.7867-3.7867 0-2.0913 1.6954-3.7867 3.7867-3.7867 2.0913 0 3.7867 1.6954 3.7867 3.7867h-3.8068"/>
        <path d="m14.898 9.1083h6.9351" stroke-linecap="round"/>
        <path d="m1.9804 19.702v-15.114h5.7725c3.8896 0.048572 4.6664 5.9104 0 5.8607 6.0438-0.19444 5.9907 9.2978 0 9.2978z" stroke-linecap="butt"/>
      </g>
    </symbol>
    <symbol id="deviantart" viewBox="0 0 24 24">
      <path d="m5.503 5.9118v4.6799h4.0375l-4.1293 7.708v3.3952h4.1293l2.1105-3.9458 6.2398 0.09176v-5.0469h-3.7622l3.7622-7.3409v-3.7622h-3.6705l-2.1105 4.221z" stroke-linecap="butt" stroke-linejoin="round" stroke-width="2"/>
    </symbol>
    <symbol id="dribbble" viewBox="0 0 24 24">
      <circle cx="11.985" cy="12.129" r="10.409" stroke-width="2"/>
      <g>
        <path d="m8.4082 2.3523a31.322 31.322 0 0 1 6.1937 18.699 31.322 31.322 0 0 1-0.021484 1.1599"/>
        <path d="m20.021 5.5337a31.322 31.322 0 0 1-15.879 4.3234 31.322 31.322 0 0 1-2.2791-0.08303"/>
        <path d="m3.7615 18.501a31.322 31.322 0 0 1 17.188-5.137 31.322 31.322 0 0 1 1.3554 0.029338"/>
      </g>
    </symbol>
    <symbol id="rss" viewBox="0 0 24 24">
      <path d="M4 11a9 9 0 0 1 9 9"></path>
      <path d="M4 4a16 16 0 0 1 16 16"></path>
      <circle cx="5" cy="19" r="1"></circle>
    </symbol>
    <symbol id="youtube" viewBox="0 0 24 24">
      <path d="M22.54 6.42a2.78 2.78 0 0 0-1.94-2C18.88 4 12 4 12 4s-6.88 0-8.6.46a2.78 2.78 0 0 0-1.94 2A29 29 0 0 0 1 11.75a29 29 0 0 0 .46 5.33A2.78 2.78 0 0 0 3.4 19c1.72.46 8.6.46 8.6.46s6.88 0 8.6-.46a2.78 2.78 0 0 0 1.94-2 29 29 0 0 0 .46-5.25 29 29 0 0 0-.46-5.33z"></path>
      <polygon points="9.75 15.02 15.5 11.75 9.75 8.48 9.75 15.02"></polygon>
    </symbol>
    <symbol id="share-2" viewBox="0 0 24 24">
      <circle cx="18" cy="5" r="3"></circle>
      <circle cx="6" cy="12" r="3"></circle>
      <circle cx="18" cy="19" r="3"></circle>
      <line x1="8.59" y1="13.51" x2="15.42" y2="17.49"></line>
      <line x1="15.41" y1="6.51" x2="8.59" y2="10.49"></line>
    </symbol>
    <symbol id="telegram" viewBox="0 0 24 24">
      <path d="m12.723 17.265-3.8766 2.5458-1.5622-6.596-5.7281-2.1987 20.887-8.2739-3.6451 18.515-8.216-5.7859 11.803-12.613" stroke-linecap="round" stroke-linejoin="round" style="paint-order:stroke fill markers"/>
    </symbol>
    <symbol id="whatsapp" viewBox="0 0 24 24">
      <path d="m22.103 12c0 5.2914-4.2896 9.581-9.581 9.581-2.1748 0-4.1803-0.7246-5.7884-1.9455-0.30157-0.22897 0 0-4.7423 1.7661 2.1252-4.7997 2.5929-3.9472 2.1252-4.7997-0.74935-1.3658-1.1755-2.9341-1.1755-4.6019 0-5.2914 4.2896-9.581 9.581-9.581 5.2914 0 9.581 4.2896 9.581 9.581z"/>
      <path d="m9.3081 11.542 0.87679-1.1691-1.7536-2.0683s-0.35971 4.0467 1.9334 5.8003c2.2931 1.7536 6.205 1.3489 6.205 1.3489l-2.3381-1.4838v0l-1.1016 0.94424" stroke-linecap="round" stroke-linejoin="round" style="paint-order:stroke markers fill"/>
    </symbol>
    <symbol id="pinterest" viewBox="0 0 24 24">
      <path d="m6.477 13.101s-3.7996-3.2116-0.52824-8.0745c3.2714-4.863 9.2767-3.4852 11.772-0.45278s1.8866 7.169-0.15093 9.5838c-2.988 3.5413-5.8861 1.6602-6.5653 0.45278-0.67916-1.2074-2.6412-5.7352-1.4338-7.3199 1.2074-1.5847 1.8866 0.52824 1.5847 1.2829-0.30185 0.75463-3.5468 13.583-3.5468 13.583" stroke-linecap="round" stroke-linejoin="bevel"/>
    </symbol>
    <symbol id="more" viewBox="0 0 24 24">
      <circle cx="12" cy="12" r="1"></circle>
      <circle cx="12" cy="5" r="1"></circle>
      <circle cx="12" cy="19" r="1"></circle>
    </symbol>
  </defs>
</svg>